<?xml version="1.0" encoding="UTF-8"?>
<svg version="1.1" viewBox="0 0 2048 619" width="390" height="118" xmlns="http://www.w3.org/2000/svg">
<path transform="translate(36,4)" d="m0 0h460l7 4 12 11 15 15 12 17 8 15 8 24 2 9 1 12v19l-1 14-6 25-6 15-8 16-9 15-10 13-9 10-10 10-7 8-2 4 36 18 18 12 13 10 11 10 8 7 9 10 12 16 9 15 8 17 6 20 3 15 2 20v9l-3 25-5 22-8 20-9 17-11 16-9 11-17 17-18 13-21 12-25 11-38 13-16 2v1h-261l1-8 3-3 37-5 21-5 18-6 20-9 17-10 14-10 11-9 10-9 13-13 11-14 10-16 6-15 6-21 3-16 1-8v-23l-4-25-5-17-8-18-10-17-10-13-11-12-10-10-17-13-15-10-29-15 2-4 11-8 10-8 15-15 11-15 10-21 4-18 1-6v-18l-2-15-5-17-8-16-10-13-11-12-9-9-12-9-14-8-19-9-18-6-16-3-20-2h-40l-21 3-20 6-15 6-17 9-17 12-12 11-8 8-11 15-8 15-12 34h-3l-2-5v-145l5-1zm364 49 3 9 5 13 5 20 2 14v29l-3 19-7 21-9 20-12 19-10 13-9 10-4 5-8 7-6 5v3l32 16 21 13 18 14 12 11 10 10 11 14 11 18 10 21 4 11 4 20 1 9v35l-3 19-6 21-6 15-9 17-14 20-12 13-12 11-14 10-15 9-15 8-22 9-1 2 16-2 23-5 24-8 23-11 18-11 11-8 13-11 8-7 13-15 11-15 10-19 6-16 4-17 2-13v-36l-3-17-5-16-7-17-8-15-13-18-11-12-9-9-17-13-15-10-21-12-9-4 2-4 16-12 19-19 10-13 6-11 5-11 5-19 1-9v-16l-3-17-6-17-8-15-10-14-15-15-13-10-16-10-8-4z" fill="#0E4876"/>
<path transform="translate(1172,300)" d="m0 0h75l3 3 9 14 11 14 14 17 11 14 11 13 11 14 14 17 9 11 13 16 11 13 8 10 9 11 14 17 9 11 9 10 8 10 2 2v-86l-1-77-2-20-5-10-7-4-31-6-3-2v-11l1-1h107l1 1v12l-19 5-8 4-4 5-2 5-2 20-2 56-1 118v53l-1 1-10-1h-10l-9 1-9-10-14-19-12-15-12-16-13-16-10-13-11-14-13-16-10-13-13-16-22-28-13-16-11-14-9-11-3-3v170l2 14 3 8 7 5 15 4 18 3v8l-1 5-2 1h-106l-1-1-1-12 1-2 17-2 11-4 5-4 4-8 1-6 1-18 2-64v-57l1-2v-59l-3-8-4-5-14-7-17-4-8-2v-12z" fill="#0E4876"/>
<path transform="translate(1621,299)" d="m0 0h35l27 3 21 6 12 5 15 8 10 8 10 9 8 9 9 14 7 14 5 15 4 19 1 10v27l-3 21-5 19-8 18-7 12-7 9-9 10-10 9-13 9-15 9-19 8-23 6-21 3h-93l-52-1-1-1v-13l22-3 10-3 7-4 4-10 1-10 1-47v-109l-2-44-3-9-4-4-8-3-21-4-3-3 1-10 1-1h85zm-26 18-8 4-2 3-1 6v196l2 14 4 8 10 7 14 4 16 2h21l19-3 16-6 14-9 12-11 7-8 8-13 7-17 5-21 1-6 1-24-1-26-4-19-6-16-9-17-9-12-11-11-13-9-16-8-17-5-11-2-11-1z" fill="#0E4876"/>
<path transform="translate(646,300)" d="m0 0h133l17 2 16 5 12 6 10 8 8 11 5 12 2 8v21l-5 15-6 9-9 10-11 9-10 5 4 2 17 6 13 8 10 9 7 8 6 13 4 16v17l-4 17-6 14-8 11-10 10-13 9-16 8-20 6-24 4h-65l-62-1-1-2v-9l2-4 21-2 10-3 6-5 2-5 1-7 1-71v-132l-2-12-3-5-11-4-20-3-1-1zm89 17-8 3-3 3-1 5v91h47l11-2 10-5 7-6 6-10 4-13v-21l-4-14-6-11-7-7-10-6-15-5-11-2zm-11 119-1 1v99l3 10 6 8 8 4 7 2 8 1h23l16-4 11-6 8-7 7-11 4-12 2-16-1-17-3-12-7-13-7-8-10-7-14-7-16-4-9-1z" fill="#0E4876"/>
<path transform="translate(1824,299)" d="m0 0 31 1h171l-4 21-5 41-2 3h-9l-4-2-6-27-5-10-5-3-4-1-20-1h-48l-8 2-2 3-1 5-1 95 59-1 17-2 5-5 4-9 4-15 16 1-1 14-1 19-1 50-2 1-13-1-1-1-3-15-4-9-5-4-8-1-66-1 1 88 2 12 4 6 4 2 7 1 21 1h47l10-3 9-6 8-10 7-11 10-21 5-1 11 3v7l-11 37-8 20-5 5-7 1h-203l-1-1-1-11 1-2 3-1 21-2 12-3 8-5 3-9 1-18 1-75v-73l-1-34-1-15-3-8-8-3-24-5-1-2z" fill="#0E4876"/>
<path transform="translate(1012,300)" d="m0 0 19 1h11l3 7 12 36 15 42 16 45 20 55 15 39 10 21 5 7 10 6 14 3 10 1 1 14-1 1h-115v-14l1-1 19-3 9-5-2-10-15-45-11-29-1-1h-83l-3 9-11 30-10 31-1 10 3 5 8 4 24 5 1 4-2 9-2 1h-18l-29-1-56 1-1-1v-12l2-2 15-2 11-4 8-6 6-7 10-21 16-40 22-57 13-35 20-55 9-26 2-9zm3 50-15 43-17 50-1 3 1 1h67l-2-9-25-75-5-12z" fill="#0E4876"/>
<path transform="translate(878,45)" d="m0 0h23l89 1 16 5 11 7 7 7 6 10 4 13v20l-4 13-9 14-7 7-13 8-6 2 7 11 13 18 10 14 11 14 12 14 10 10 10 6 19 5 1 1-1 9-2 2-23-1-17-2-13-4-9-6-9-9-13-18-32-48-5-3-27-3 1 60 2 13 3 3 11 3 12 2 1 1v10h-88l-1-1v-9l6-2 16-3 3-3 3-12v-157l-4-6-9-3-14-2-2-7zm72 12-9 3-4 4v84h35l10-3 8-6 7-8 5-12 1-5v-13l-3-15-6-11-6-7-8-5-13-4z" fill="#0E4876"/>
<path transform="translate(1606,40)" d="m0 0h29l20 4 12 5 13 7 9 7 8 7 9 12 9 17 5 16 3 17 1 18-3 25-5 17-8 16-9 13-9 10-13 10-14 8-16 6-19 4-9 1h-13l-21-3-18-6-16-9-13-12-8-9-10-16-7-18-4-17-1-7v-28l3-15 5-15 8-16 8-11 8-9 15-11 14-8 13-5 17-4zm-10 15-13 4-9 5-10 9-7 9-8 16-5 19-2 13v20l3 19 5 17 7 16 8 12 9 10 12 9 15 7 12 3 14 1 14-2 12-4 13-9 8-9 7-12 5-15 3-15 1-22-1-19-4-20-8-20-9-14-9-10-13-9-13-6-11-3z" fill="#0E4876"/>
<path transform="translate(773,39)" d="m0 0 29 2 39 6 1 3-4 29-3 23-2 1h-8l-2-4-4-20-4-8-5-5-5-4-12-5-19-3h-19l-14 2-12 4-11 6-12 11-7 10-7 16-4 15-2 13v27l3 18 6 18 8 16 9 11 9 8 11 7 16 6 14 3h26l11-4 4-5 2-9v-37l-3-8-4-3-15-3-9-1-2-2-1-7 1-3h83l2 1-2 10-6 2-9 2-3 12v44l5 2 3 5-1 5-10 4-27 6-21 3-22 1-23-2-19-4-15-5-17-9-14-12-10-13-8-16-5-15-4-22v-23l3-19 5-15 9-17 11-14 11-10 14-9 18-8 20-5 16-2z" fill="#0E4876"/>
<path transform="translate(1077,45)" d="m0 0h84v9l-4 2-12 3-6 3-2 5-1 14v86l2 21 3 13 7 14 9 10 11 7 10 4 14 2h16l13-2 11-4 9-7 7-10 5-12 3-19 2-39v-51l-1-18-2-9-3-5-16-5-9-2-2-6 1-4h77l1 3-2 7-6 2-8 3-6 4-3 8-1 12-2 68-1 23-2 17-4 17-5 13-7 10-8 9-10 7-8 4-16 5-21 3h-14l-21-3-16-5-12-7-7-6-9-13-5-12-3-13-1-9-1-20-1-97-3-12-6-4-16-3-2-5z" fill="#0E4876"/>
<path transform="translate(1318,45)" d="m0 0h22l89 1 15 4 12 6 10 9 8 13 4 14v25l-5 16-7 11-9 10-10 7-10 5-15 4-5 1h-23l-5-5-2-7 1-2h23l11-3 9-5 8-9 4-9 2-11v-17l-3-15-6-12-8-8-13-6-12-3-12-1-9 2-4 3-2 39v102l1 21 2 9 4 4 11 3 13 2 1 1v10h-90l-1-1v-8l2-2 17-3 6-4 1-1 1-7v-159l-3-6-7-5-11-2h-5z" fill="#0E4876"/>
<path transform="translate(449,618)" d="m0 0 3 1z" fill="#FEFEFE"/>
</svg>
